<svg width="164" height="62" viewBox="0 0 164 62" fill="none" xmlns="http://www.w3.org/2000/svg">
<path d="M31.513 5.43042C28.2968 5.43049 25.1092 6.02945 22.1149 7.19632L7.54311 21.6758C6.36769 24.6538 5.76437 27.8245 5.76442 31.0235C5.76487 34.2106 6.36424 37.3696 7.53167 40.338L22.1486 54.8626C23.0289 55.1649 23.8376 55.4308 24.6032 55.6754C26.8492 56.2978 29.1733 56.6165 31.513 56.6168C34.7191 56.6164 37.8969 56.0207 40.8829 54.8606L52.6322 43.1859L52.6922 31.4722V18.9L40.9194 7.20149C37.9229 6.03184 34.7323 5.4311 31.513 5.43042ZM19.3711 18.0985H49.5714L43.7433 23.8478H23.963L22.0643 26.0422L23.963 28.3682H43.8317L49.5714 36.0044L43.6548 43.948H13.4545L19.2387 38.1987H39.063L40.9176 36.0044L39.063 33.6783H19.1943L13.4545 26.0422L19.3711 18.0985Z" fill="#D9DCF7"/>
<path d="M62.6744 30.9487C62.6765 31.09 62.6724 31.231 62.6626 31.372C62.6676 31.2562 62.672 31.1404 62.6758 31.0246C62.6754 30.9993 62.675 30.974 62.6745 30.9487H62.6744Z" fill="#50668F"/>
<path d="M62.6744 30.9409C62.6744 30.9411 62.6744 30.9412 62.6744 30.9414C62.6744 30.9415 62.6744 30.9417 62.6744 30.9419C62.6744 30.942 62.6744 30.9422 62.6744 30.9424C62.6744 30.9425 62.6744 30.9427 62.6744 30.9429C62.6744 30.943 62.6744 30.9432 62.6744 30.9434C62.6745 30.9428 62.6749 30.9416 62.6749 30.9404L62.6744 30.9409Z" fill="#50668F"/>
<path d="M31.1627 0.0356445C27.0703 0.0356038 23.018 0.83677 19.2372 2.39339C15.4563 3.95 12.021 6.23159 9.12724 9.10788C6.23351 11.9842 3.93809 15.3988 2.37203 19.1569C0.805978 22.9149 -4.04884e-05 26.9428 1.52541e-09 31.0105C0.00252127 31.0825 0.00529559 31.1546 0.00832297 31.2266C-0.0470951 29.8032 0.473038 28.3622 1.57131 27.2708L7.18135 21.6963C8.47617 18.403 10.4435 15.4121 12.9592 12.9122C15.475 10.4123 18.4846 8.45773 21.7983 7.17165L27.3899 1.61542C28.508 0.504423 29.9906 -0.0121303 31.4481 0.0649456V0.0453452C31.353 0.0416925 31.2578 0.038468 31.1627 0.0356818V0.0356445Z" fill="#50668F"/>
<path d="M31.4932 0C31.4207 0.00250608 31.3482 0.00526134 31.2758 0.00827047C32.7078 -0.0468234 34.1576 0.470186 35.2555 1.56184L40.8639 7.13807C45.8829 9.09193 50.1585 12.5622 53.0879 17.0596H59.3329C56.7385 11.9312 52.7615 7.62027 47.8456 4.6079C42.9296 1.59552 37.2682 0.000206588 31.4932 0ZM53.1531 17.1585C53.1536 17.1595 53.1542 17.1604 53.1547 17.1614L53.634 17.2544C53.634 17.2544 53.2444 17.1769 53.153 17.1586L53.1531 17.1585Z" fill="#50668F"/>
<path d="M31.8275 62.0001C27.7351 62.0001 23.6828 61.199 19.902 59.6423C16.1211 58.0857 12.6858 55.8041 9.79204 52.9278C6.89831 50.0515 4.60289 46.6369 3.03683 42.8788C1.47078 39.1208 0.664758 35.0929 0.664799 31.0252C0.66732 30.9532 0.670094 30.8811 0.673122 30.8091C0.617691 32.2325 1.13784 33.6735 2.23611 34.7649L7.84615 40.3394C9.14097 43.6327 11.1083 46.6236 13.624 49.1235C16.1398 51.6234 19.1494 53.578 22.4631 54.8641L28.0547 60.4203C29.1728 61.5313 30.6554 62.0478 32.1129 61.9708V61.9904C32.0178 61.994 31.9226 61.9972 31.8275 62V62.0001Z" fill="#50668F"/>
<path d="M53.3359 45.8135C50.4298 49.894 46.385 53.0391 41.701 54.8605L36.0927 60.4367C34.9947 61.5284 33.545 62.0454 32.1129 61.9903C32.1854 61.9933 32.2579 61.9961 32.3304 61.9986C37.9369 61.9984 43.4395 60.4948 48.2582 57.6463C53.0769 54.7978 57.0333 50.7099 59.7102 45.8135H53.3359Z" fill="#50668F"/>
<path d="M31.5149 0.0481252V0.048461C31.3877 0.048461 31.2607 0.054452 31.1338 0.0636214C31.2602 0.058142 31.3867 0.0534288 31.5131 0.0494808C31.5447 0.0498407 31.5763 0.0502568 31.6078 0.050712C31.5769 0.0503045 31.5458 0.0478516 31.5149 0.0478516V0.0481252Z" fill="#50668F"/>
<path d="M49.6006 36.4867L43.6842 44.4301H13.4839L19.2679 38.681H39.0923L40.9467 36.4867L39.0923 34.1607H19.2237L13.4839 26.5245L19.4003 18.5811H49.6006L43.7725 24.3302H23.9922L22.0936 26.5245L23.9922 28.8505H43.8608L49.6006 36.4867Z" fill="#50668F"/>
<path d="M94.4153 48.9065L86.5562 44.4301V27.885L76.7985 41.2264H71.7209L62.0074 27.885V44.4301H54.1482V18.5811H63.0229L74.2818 33.9852L85.4965 18.5811H94.4153V48.9065Z" fill="#50668F"/>
<path d="M133.711 18.5811L127.927 24.3302H120.2V48.9065L112.341 44.4301V24.3302H104.614L98.8305 18.5811H133.711Z" fill="#50668F"/>
<path d="M164 18.5811L158.216 24.3741H140.731V38.681H163.072L157.244 44.474H138.788L132.872 38.5932V24.4618L138.788 18.5811H164Z" fill="#50668F"/>
<path d="M62.8039 13.7382V12.8894H64.7638V14.6287C64.3886 14.8829 64.0564 15.0564 63.7671 15.1491C63.4796 15.24 63.138 15.2855 62.7423 15.2855C62.2552 15.2855 61.8576 15.2029 61.5497 15.0378C61.2435 14.8727 61.0056 14.6269 60.8357 14.3004C60.6677 13.9738 60.5837 13.5991 60.5837 13.1761C60.5837 12.7308 60.6761 12.344 60.8609 12.0156C61.0457 11.6854 61.3163 11.4349 61.6728 11.2642C61.9509 11.1325 62.3252 11.0667 62.7955 11.0667C63.2491 11.0667 63.5879 11.1075 63.8119 11.1891C64.0377 11.2707 64.2243 11.3978 64.3718 11.5704C64.5211 11.741 64.6331 11.9581 64.7078 12.2216L63.4843 12.4386C63.4339 12.2846 63.348 12.1668 63.2267 12.0852C63.1072 12.0036 62.9542 11.9627 62.7675 11.9627C62.4894 11.9627 62.2673 12.0592 62.1012 12.2522C61.937 12.4433 61.8548 12.7466 61.8548 13.1622C61.8548 13.6037 61.9379 13.9191 62.104 14.1083C62.272 14.2976 62.5053 14.3922 62.8039 14.3922C62.9458 14.3922 63.0811 14.3718 63.2099 14.331C63.3387 14.2902 63.4861 14.2206 63.6523 14.1223V13.7382H62.8039Z" fill="#333333"/>
<path d="M65.3013 13.7464C65.3013 13.2956 65.4544 12.9246 65.7605 12.6333C66.0666 12.3402 66.48 12.1936 67.0008 12.1936C67.5962 12.1936 68.046 12.3652 68.3503 12.7084C68.5948 12.9849 68.717 13.3253 68.717 13.7297C68.717 14.1843 68.5649 14.5572 68.2607 14.8485C67.9583 15.1379 67.5393 15.2826 67.0036 15.2826C66.5257 15.2826 66.1394 15.162 65.8445 14.9208C65.4824 14.6221 65.3013 14.2307 65.3013 13.7464ZM66.4436 13.7436C66.4436 14.007 66.4968 14.2018 66.6032 14.328C66.7115 14.4541 66.8468 14.5172 67.0092 14.5172C67.1734 14.5172 67.3078 14.4551 67.4123 14.3308C67.5187 14.2065 67.5719 14.007 67.5719 13.7325C67.5719 13.4764 67.5187 13.2863 67.4123 13.162C67.3059 13.0358 67.1743 12.9727 67.0176 12.9727C66.8514 12.9727 66.7143 13.0367 66.606 13.1648C66.4977 13.2909 66.4436 13.4839 66.4436 13.7436Z" fill="#333333"/>
<path d="M68.731 12.2605H69.9181L70.4949 14.1334L71.0912 12.2605H72.2419L70.9792 15.2159H69.9685L68.731 12.2605Z" fill="#333333"/>
<path d="M75.7248 14.0192H73.4402C73.4607 14.201 73.5102 14.3364 73.5886 14.4255C73.6987 14.5535 73.8424 14.6175 74.0197 14.6175C74.1317 14.6175 74.2381 14.5897 74.3389 14.534C74.4005 14.4988 74.4668 14.4366 74.5377 14.3476L75.6604 14.4505C75.4887 14.7474 75.2815 14.9607 75.0389 15.0906C74.7962 15.2186 74.4481 15.2826 73.9945 15.2826C73.6007 15.2826 73.2909 15.2279 73.065 15.1184C72.8392 15.0071 72.6516 14.8318 72.5023 14.5924C72.3548 14.3513 72.2811 14.0683 72.2811 13.7437C72.2811 13.2817 72.4295 12.9079 72.7263 12.6222C73.0249 12.3365 73.4365 12.1936 73.961 12.1936C74.3865 12.1936 74.7225 12.2576 74.9689 12.3856C75.2152 12.5136 75.4028 12.6992 75.5316 12.9422C75.6604 13.1852 75.7248 13.5016 75.7248 13.8912V14.0192ZM74.5657 13.4765C74.5433 13.2576 74.4836 13.1008 74.3865 13.0062C74.2913 12.9116 74.1653 12.8643 74.0086 12.8643C73.8275 12.8643 73.6828 12.9357 73.5746 13.0786C73.5055 13.1676 73.4617 13.3003 73.443 13.4765H74.5657Z" fill="#333333"/>
<path d="M76.2595 12.2604H77.3263V12.7446C77.4289 12.535 77.5344 12.3912 77.6426 12.3133C77.7528 12.2335 77.8881 12.1936 78.0486 12.1936C78.2166 12.1936 78.4004 12.2456 78.6001 12.3494L78.2474 13.1565C78.113 13.1008 78.0066 13.073 77.9282 13.073C77.7789 13.073 77.6632 13.1342 77.581 13.2567C77.4634 13.4292 77.4046 13.752 77.4046 14.2251V15.2158H76.2595V12.2604Z" fill="#333333"/>
<path d="M79.0789 12.2604H80.14V12.7418C80.2987 12.5452 80.4592 12.4051 80.6216 12.3216C80.7839 12.2363 80.9818 12.1936 81.2151 12.1936C81.5306 12.1936 81.7769 12.2873 81.9542 12.4747C82.1334 12.6602 82.223 12.9478 82.223 13.3374V15.2158H81.0779V13.5906C81.0779 13.4051 81.0434 13.2743 80.9743 13.1982C80.9053 13.1203 80.8082 13.0813 80.6832 13.0813C80.545 13.0813 80.433 13.1333 80.3472 13.2372C80.2613 13.3411 80.2184 13.5275 80.2184 13.7965V15.2158H79.0789V12.2604Z" fill="#333333"/>
<path d="M82.7634 13.7464C82.7634 13.2956 82.9164 12.9246 83.2225 12.6333C83.5286 12.3402 83.9421 12.1936 84.4628 12.1936C85.0582 12.1936 85.5081 12.3652 85.8123 12.7084C86.0568 12.9849 86.1791 13.3253 86.1791 13.7297C86.1791 14.1843 86.0269 14.5572 85.7227 14.8485C85.4203 15.1379 85.0013 15.2826 84.4656 15.2826C83.9878 15.2826 83.6014 15.162 83.3065 14.9208C82.9444 14.6221 82.7634 14.2307 82.7634 13.7464ZM83.9057 13.7436C83.9057 14.007 83.9589 14.2018 84.0652 14.328C84.1735 14.4541 84.3088 14.5172 84.4712 14.5172C84.6355 14.5172 84.7699 14.4551 84.8744 14.3308C84.9808 14.2065 85.034 14.007 85.034 13.7325C85.034 13.4764 84.9808 13.2863 84.8744 13.162C84.768 13.0358 84.6364 12.9727 84.4796 12.9727C84.3135 12.9727 84.1763 13.0367 84.0681 13.1648C83.9598 13.2909 83.9057 13.4839 83.9057 13.7436Z" fill="#333333"/>
<path d="M91.7702 11.1362V15.2159H90.7035V14.779C90.5541 14.9645 90.4179 15.0898 90.2947 15.1547C90.1304 15.24 89.9475 15.2827 89.746 15.2827C89.3409 15.2827 89.0311 15.1297 88.8164 14.8235C88.6037 14.5174 88.4973 14.1454 88.4973 13.7076C88.4973 13.2178 88.6149 12.8431 88.85 12.5833C89.0871 12.3236 89.3876 12.1937 89.7516 12.1937C89.9289 12.1937 90.0894 12.2234 90.2331 12.2828C90.3787 12.3421 90.5075 12.4312 90.6195 12.5499V11.1362H91.7702ZM90.6279 13.7299C90.6279 13.498 90.5784 13.3254 90.4795 13.2123C90.3806 13.0972 90.2555 13.0397 90.1043 13.0397C89.9718 13.0397 89.8607 13.0944 89.7711 13.2039C89.6816 13.3134 89.6368 13.497 89.6368 13.7549C89.6368 13.9961 89.6825 14.1733 89.7739 14.2864C89.8673 14.3978 89.9821 14.4534 90.1183 14.4534C90.2639 14.4534 90.3852 14.3968 90.4823 14.2837C90.5793 14.1705 90.6279 13.9859 90.6279 13.7299Z" fill="#333333"/>
<path d="M92.3245 13.7464C92.3245 13.2956 92.4776 12.9246 92.7837 12.6333C93.0898 12.3402 93.5032 12.1936 94.024 12.1936C94.6194 12.1936 95.0692 12.3652 95.3734 12.7084C95.618 12.9849 95.7402 13.3253 95.7402 13.7297C95.7402 14.1843 95.5881 14.5572 95.2839 14.8485C94.9815 15.1379 94.5625 15.2826 94.0268 15.2826C93.5489 15.2826 93.1626 15.162 92.8677 14.9208C92.5056 14.6221 92.3245 14.2307 92.3245 13.7464ZM93.4668 13.7436C93.4668 14.007 93.52 14.2018 93.6264 14.328C93.7347 14.4541 93.87 14.5172 94.0324 14.5172C94.1966 14.5172 94.331 14.4551 94.4355 14.3308C94.5419 14.2065 94.5951 14.007 94.5951 13.7325C94.5951 13.4764 94.5419 13.2863 94.4355 13.162C94.3291 13.0358 94.1976 12.9727 94.0408 12.9727C93.8746 12.9727 93.7375 13.0367 93.6292 13.1648C93.521 13.2909 93.4668 13.4839 93.4668 13.7436Z" fill="#333333"/>
<path d="M98.274 11.1362H101.673V12.0073H99.5451V12.6557H101.519V13.4878H99.5451V14.292H101.734V15.2159H98.274V11.1362Z" fill="#333333"/>
<path d="M102.14 14.3976L103.272 14.2919C103.318 14.4255 103.384 14.521 103.468 14.5785C103.552 14.636 103.663 14.6648 103.803 14.6648C103.957 14.6648 104.075 14.6323 104.159 14.5674C104.224 14.5192 104.257 14.4589 104.257 14.3865C104.257 14.3049 104.214 14.2418 104.128 14.1973C104.067 14.1657 103.903 14.1268 103.638 14.0804C103.243 14.0117 102.967 13.9487 102.812 13.8912C102.659 13.8318 102.53 13.7325 102.423 13.5934C102.319 13.4542 102.266 13.2956 102.266 13.1175C102.266 12.9227 102.323 12.7548 102.437 12.6138C102.551 12.4728 102.708 12.368 102.908 12.2994C103.107 12.2289 103.375 12.1936 103.711 12.1936C104.066 12.1936 104.327 12.2205 104.495 12.2743C104.665 12.3281 104.806 12.4116 104.918 12.5248C105.032 12.6379 105.126 12.791 105.201 12.9839L104.12 13.0897C104.092 12.9951 104.045 12.9255 103.98 12.881C103.89 12.8216 103.782 12.7919 103.655 12.7919C103.526 12.7919 103.432 12.8151 103.372 12.8615C103.314 12.906 103.286 12.9608 103.286 13.0257C103.286 13.098 103.323 13.1528 103.398 13.1899C103.472 13.227 103.635 13.2604 103.885 13.2901C104.264 13.3327 104.545 13.3921 104.73 13.4682C104.915 13.5442 105.056 13.6528 105.153 13.7938C105.252 13.9348 105.301 14.0897 105.301 14.2585C105.301 14.4292 105.249 14.5952 105.145 14.7566C105.042 14.918 104.879 15.047 104.655 15.1434C104.432 15.2381 104.129 15.2854 103.745 15.2854C103.202 15.2854 102.814 15.2084 102.583 15.0544C102.353 14.9004 102.206 14.6815 102.14 14.3976Z" fill="#333333"/>
<path d="M107.219 11.1362V12.2605H107.846V13.087H107.219V14.1362C107.219 14.2623 107.231 14.3458 107.256 14.3866C107.293 14.4497 107.358 14.4812 107.452 14.4812C107.536 14.4812 107.653 14.4571 107.804 14.4089L107.888 15.1909C107.607 15.2521 107.343 15.2827 107.099 15.2827C106.815 15.2827 106.606 15.2465 106.472 15.1742C106.337 15.1018 106.237 14.9924 106.172 14.8458C106.109 14.6974 106.077 14.458 106.077 14.1278V13.087H105.657V12.2605H106.077V11.7178L107.219 11.1362Z" fill="#333333"/>
<path d="M109.428 13.2177L108.339 13.1036C108.38 12.9144 108.439 12.7659 108.515 12.6583C108.594 12.5489 108.706 12.4543 108.851 12.3745C108.956 12.317 109.1 12.2725 109.283 12.2409C109.466 12.2094 109.663 12.1936 109.876 12.1936C110.218 12.1936 110.492 12.2131 110.699 12.252C110.906 12.2892 111.079 12.368 111.217 12.4886C111.314 12.5721 111.391 12.6908 111.447 12.8448C111.503 12.9969 111.531 13.1426 111.531 13.2817V14.5869C111.531 14.726 111.539 14.8355 111.556 14.9153C111.575 14.9932 111.614 15.0934 111.674 15.2158H110.604C110.561 15.1397 110.533 15.0822 110.52 15.0433C110.507 15.0025 110.494 14.9394 110.481 14.854C110.332 14.9969 110.183 15.0989 110.036 15.1602C109.834 15.2418 109.6 15.2826 109.333 15.2826C108.978 15.2826 108.709 15.201 108.524 15.0377C108.341 14.8744 108.25 14.6731 108.25 14.4338C108.25 14.2093 108.316 14.0247 108.448 13.88C108.581 13.7353 108.825 13.6277 109.182 13.5572C109.609 13.4719 109.886 13.4125 110.013 13.3791C110.14 13.3439 110.275 13.2984 110.417 13.2427C110.417 13.1036 110.388 13.0062 110.33 12.9505C110.272 12.8949 110.17 12.8671 110.025 12.8671C109.838 12.8671 109.698 12.8967 109.605 12.9561C109.532 13.0025 109.473 13.0897 109.428 13.2177H109.428ZM110.417 13.8132C110.26 13.8689 110.096 13.9181 109.927 13.9607C109.695 14.0219 109.549 14.0823 109.487 14.1416C109.424 14.2028 109.392 14.2724 109.392 14.3503C109.392 14.4394 109.423 14.5127 109.484 14.5702C109.548 14.6258 109.64 14.6537 109.761 14.6537C109.888 14.6537 110.006 14.6231 110.114 14.5618C110.224 14.5006 110.302 14.4264 110.347 14.3392C110.393 14.2501 110.417 14.1351 110.417 13.9941V13.8132Z" fill="#333333"/>
<path d="M115.344 11.1362V15.2159H114.277V14.779C114.128 14.9645 113.992 15.0898 113.869 15.1547C113.704 15.24 113.521 15.2827 113.32 15.2827C112.915 15.2827 112.605 15.1297 112.39 14.8235C112.178 14.5174 112.071 14.1454 112.071 13.7076C112.071 13.2178 112.189 12.8431 112.424 12.5833C112.661 12.3236 112.961 12.1937 113.325 12.1937C113.503 12.1937 113.663 12.2234 113.807 12.2828C113.953 12.3421 114.081 12.4312 114.193 12.5499V11.1362H115.344ZM114.202 13.7299C114.202 13.498 114.152 13.3254 114.053 13.2123C113.954 13.0972 113.829 13.0397 113.678 13.0397C113.546 13.0397 113.435 13.0944 113.345 13.2039C113.255 13.3134 113.211 13.497 113.211 13.7549C113.211 13.9961 113.256 14.1733 113.348 14.2864C113.441 14.3978 113.556 14.4534 113.692 14.4534C113.838 14.4534 113.959 14.3968 114.056 14.2837C114.153 14.1705 114.202 13.9859 114.202 13.7299Z" fill="#333333"/>
<path d="M115.898 13.7464C115.898 13.2956 116.051 12.9246 116.358 12.6333C116.664 12.3402 117.077 12.1936 117.598 12.1936C118.193 12.1936 118.643 12.3652 118.947 12.7084C119.192 12.9849 119.314 13.3253 119.314 13.7297C119.314 14.1843 119.162 14.5572 118.858 14.8485C118.555 15.1379 118.136 15.2826 117.601 15.2826C117.123 15.2826 116.736 15.162 116.442 14.9208C116.079 14.6221 115.898 14.2307 115.898 13.7464ZM117.041 13.7436C117.041 14.007 117.094 14.2018 117.2 14.328C117.309 14.4541 117.444 14.5172 117.606 14.5172C117.771 14.5172 117.905 14.4551 118.009 14.3308C118.116 14.2065 118.169 14.007 118.169 13.7325C118.169 13.4764 118.116 13.2863 118.009 13.162C117.903 13.0358 117.771 12.9727 117.615 12.9727C117.449 12.9727 117.311 13.0367 117.203 13.1648C117.095 13.2909 117.041 13.4839 117.041 13.7436Z" fill="#333333"/>
<path d="M124.905 11.1362V15.2159H123.839V14.779C123.689 14.9645 123.553 15.0898 123.43 15.1547C123.266 15.24 123.083 15.2827 122.881 15.2827C122.476 15.2827 122.166 15.1297 121.952 14.8235C121.739 14.5174 121.632 14.1454 121.632 13.7076C121.632 13.2178 121.75 12.8431 121.985 12.5833C122.222 12.3236 122.523 12.1937 122.887 12.1937C123.064 12.1937 123.224 12.2234 123.368 12.2828C123.514 12.3421 123.643 12.4312 123.755 12.5499V11.1362H124.905ZM123.763 13.7299C123.763 13.498 123.713 13.3254 123.615 13.2123C123.516 13.0972 123.391 13.0397 123.239 13.0397C123.107 13.0397 122.996 13.0944 122.906 13.2039C122.817 13.3134 122.772 13.497 122.772 13.7549C122.772 13.9961 122.818 14.1733 122.909 14.2864C123.002 14.3978 123.117 14.4534 123.253 14.4534C123.399 14.4534 123.52 14.3968 123.617 14.2837C123.714 14.1705 123.763 13.9859 123.763 13.7299Z" fill="#333333"/>
<path d="M126.638 13.2177L125.549 13.1036C125.59 12.9144 125.649 12.7659 125.726 12.6583C125.804 12.5489 125.916 12.4543 126.062 12.3745C126.166 12.317 126.31 12.2725 126.493 12.2409C126.676 12.2094 126.873 12.1936 127.086 12.1936C127.428 12.1936 127.702 12.2131 127.909 12.252C128.117 12.2892 128.289 12.368 128.427 12.4886C128.524 12.5721 128.601 12.6908 128.657 12.8448C128.713 12.9969 128.741 13.1426 128.741 13.2817V14.5869C128.741 14.726 128.749 14.8355 128.766 14.9153C128.785 14.9932 128.824 15.0934 128.884 15.2158H127.814C127.771 15.1397 127.743 15.0822 127.73 15.0433C127.717 15.0025 127.704 14.9394 127.691 14.854C127.542 14.9969 127.393 15.0989 127.246 15.1602C127.044 15.2418 126.81 15.2826 126.543 15.2826C126.188 15.2826 125.919 15.201 125.734 15.0377C125.551 14.8744 125.46 14.6731 125.46 14.4338C125.46 14.2093 125.526 14.0247 125.658 13.88C125.791 13.7353 126.035 13.6277 126.392 13.5572C126.819 13.4719 127.097 13.4125 127.223 13.3791C127.35 13.3439 127.485 13.2984 127.627 13.2427C127.627 13.1036 127.598 13.0062 127.54 12.9505C127.482 12.8949 127.38 12.8671 127.235 12.8671C127.048 12.8671 126.908 12.8967 126.815 12.9561C126.742 13.0025 126.683 13.0897 126.638 13.2177H126.638ZM127.627 13.8132C127.47 13.8689 127.306 13.9181 127.137 13.9607C126.905 14.0219 126.759 14.0823 126.697 14.1416C126.634 14.2028 126.602 14.2724 126.602 14.3503C126.602 14.4394 126.633 14.5127 126.694 14.5702C126.758 14.6258 126.85 14.6537 126.971 14.6537C127.098 14.6537 127.216 14.6231 127.324 14.5618C127.434 14.5006 127.512 14.4264 127.557 14.3392C127.603 14.2501 127.627 14.1351 127.627 13.9941V13.8132Z" fill="#333333"/>
<path d="M131.406 11.1362H133.514C133.974 11.1362 134.317 11.2447 134.545 11.4618C134.774 11.6789 134.889 11.9878 134.889 12.3885C134.889 12.8004 134.764 13.1223 134.514 13.3542C134.266 13.5861 133.886 13.702 133.374 13.702H132.68V15.2159H131.406V11.1362ZM132.68 12.8755H132.991C133.235 12.8755 133.407 12.8338 133.506 12.7503C133.605 12.665 133.654 12.5564 133.654 12.4247C133.654 12.2967 133.612 12.1882 133.526 12.0991C133.44 12.01 133.278 11.9655 133.041 11.9655H132.68V12.8755Z" fill="#333333"/>
<path d="M136.418 13.2177L135.329 13.1036C135.37 12.9144 135.429 12.7659 135.505 12.6583C135.583 12.5489 135.695 12.4543 135.841 12.3745C135.946 12.317 136.089 12.2725 136.272 12.2409C136.455 12.2094 136.653 12.1936 136.866 12.1936C137.207 12.1936 137.482 12.2131 137.689 12.252C137.896 12.2892 138.069 12.368 138.207 12.4886C138.304 12.5721 138.38 12.6908 138.436 12.8448C138.492 12.9969 138.52 13.1426 138.52 13.2817V14.5869C138.52 14.726 138.529 14.8355 138.546 14.9153C138.564 14.9932 138.603 15.0934 138.663 15.2158H137.594C137.551 15.1397 137.523 15.0822 137.51 15.0433C137.497 15.0025 137.484 14.9394 137.471 14.854C137.321 14.9969 137.173 15.0989 137.025 15.1602C136.824 15.2418 136.59 15.2826 136.323 15.2826C135.968 15.2826 135.698 15.201 135.514 15.0377C135.331 14.8744 135.239 14.6731 135.239 14.4338C135.239 14.2093 135.305 14.0247 135.438 13.88C135.57 13.7353 135.815 13.6277 136.171 13.5572C136.599 13.4719 136.876 13.4125 137.003 13.3791C137.13 13.3439 137.264 13.2984 137.406 13.2427C137.406 13.1036 137.377 13.0062 137.319 12.9505C137.261 12.8949 137.16 12.8671 137.014 12.8671C136.828 12.8671 136.688 12.8967 136.594 12.9561C136.521 13.0025 136.463 13.0897 136.418 13.2177H136.418ZM137.406 13.8132C137.249 13.8689 137.086 13.9181 136.916 13.9607C136.685 14.0219 136.538 14.0823 136.477 14.1416C136.413 14.2028 136.381 14.2724 136.381 14.3503C136.381 14.4394 136.412 14.5127 136.474 14.5702C136.537 14.6258 136.63 14.6537 136.751 14.6537C136.878 14.6537 136.995 14.6231 137.104 14.5618C137.214 14.5006 137.291 14.4264 137.336 14.3392C137.383 14.2501 137.406 14.1351 137.406 13.9941V13.8132Z" fill="#333333"/>
<path d="M139.215 12.2604H140.281V12.7446C140.384 12.535 140.49 12.3912 140.598 12.3133C140.708 12.2335 140.843 12.1936 141.004 12.1936C141.172 12.1936 141.356 12.2456 141.555 12.3494L141.203 13.1565C141.068 13.1008 140.962 13.073 140.883 13.073C140.734 13.073 140.618 13.1342 140.536 13.2567C140.419 13.4292 140.36 13.752 140.36 14.2251V15.2158H139.215V12.2604Z" fill="#333333"/>
<path d="M142.885 13.2177L141.796 13.1036C141.837 12.9144 141.896 12.7659 141.973 12.6583C142.051 12.5489 142.163 12.4543 142.308 12.3745C142.413 12.317 142.557 12.2725 142.74 12.2409C142.923 12.2094 143.12 12.1936 143.333 12.1936C143.675 12.1936 143.949 12.2131 144.156 12.252C144.364 12.2892 144.536 12.368 144.674 12.4886C144.771 12.5721 144.848 12.6908 144.904 12.8448C144.96 12.9969 144.988 13.1426 144.988 13.2817V14.5869C144.988 14.726 144.996 14.8355 145.013 14.9153C145.032 14.9932 145.071 15.0934 145.131 15.2158H144.061C144.018 15.1397 143.99 15.0822 143.977 15.0433C143.964 15.0025 143.951 14.9394 143.938 14.854C143.789 14.9969 143.64 15.0989 143.493 15.1602C143.291 15.2418 143.057 15.2826 142.79 15.2826C142.435 15.2826 142.166 15.201 141.981 15.0377C141.798 14.8744 141.707 14.6731 141.707 14.4338C141.707 14.2093 141.773 14.0247 141.905 13.88C142.038 13.7353 142.282 13.6277 142.639 13.5572C143.066 13.4719 143.343 13.4125 143.47 13.3791C143.597 13.3439 143.732 13.2984 143.874 13.2427C143.874 13.1036 143.845 13.0062 143.787 12.9505C143.729 12.8949 143.627 12.8671 143.482 12.8671C143.295 12.8671 143.155 12.8967 143.062 12.9561C142.989 13.0025 142.93 13.0897 142.885 13.2177H142.885ZM143.874 13.8132C143.717 13.8689 143.553 13.9181 143.384 13.9607C143.152 14.0219 143.006 14.0823 142.944 14.1416C142.881 14.2028 142.849 14.2724 142.849 14.3503C142.849 14.4394 142.88 14.5127 142.941 14.5702C143.005 14.6258 143.097 14.6537 143.218 14.6537C143.345 14.6537 143.463 14.6231 143.571 14.5618C143.681 14.5006 143.759 14.4264 143.804 14.3392C143.85 14.2501 143.874 14.1351 143.874 13.9941V13.8132Z" fill="#333333"/>
<path d="M145.713 12.2605H146.852V15.2159H145.713V12.2605ZM146.253 11.0667H147.233L146.329 11.8987H145.783L146.253 11.0667Z" fill="#333333"/>
<path d="M147.586 11.1362H148.737V12.5499C148.851 12.4312 148.979 12.3421 149.123 12.2828C149.269 12.2234 149.429 12.1937 149.605 12.1937C149.967 12.1937 150.266 12.3236 150.503 12.5833C150.74 12.8412 150.859 13.2122 150.859 13.6965C150.859 14.0193 150.805 14.3041 150.697 14.5508C150.588 14.7957 150.438 14.9794 150.246 15.1018C150.055 15.2224 149.844 15.2827 149.61 15.2827C149.411 15.2827 149.228 15.24 149.061 15.1547C148.936 15.0879 148.8 14.9627 148.653 14.779V15.2159H147.586V11.1362ZM148.728 13.7299C148.728 13.984 148.776 14.1686 148.871 14.2837C148.968 14.3968 149.09 14.4534 149.238 14.4534C149.374 14.4534 149.488 14.3978 149.579 14.2864C149.673 14.1733 149.719 13.984 149.719 13.7187C149.719 13.485 149.674 13.3134 149.582 13.2039C149.493 13.0944 149.383 13.0397 149.255 13.0397C149.1 13.0397 148.973 13.0972 148.874 13.2123C148.777 13.3254 148.728 13.498 148.728 13.7299Z" fill="#333333"/>
<path d="M152.444 13.2177L151.354 13.1036C151.396 12.9144 151.454 12.7659 151.531 12.6583C151.609 12.5489 151.721 12.4543 151.867 12.3745C151.971 12.317 152.115 12.2725 152.298 12.2409C152.481 12.2094 152.679 12.1936 152.892 12.1936C153.233 12.1936 153.507 12.2131 153.715 12.252C153.922 12.2892 154.094 12.368 154.233 12.4886C154.33 12.5721 154.406 12.6908 154.462 12.8448C154.518 12.9969 154.546 13.1426 154.546 13.2817V14.5869C154.546 14.726 154.555 14.8355 154.571 14.9153C154.59 14.9932 154.629 15.0934 154.689 15.2158H153.619C153.577 15.1397 153.549 15.0822 153.536 15.0433C153.522 15.0025 153.509 14.9394 153.496 14.854C153.347 14.9969 153.199 15.0989 153.051 15.1602C152.85 15.2418 152.615 15.2826 152.348 15.2826C151.994 15.2826 151.724 15.201 151.539 15.0377C151.356 14.8744 151.265 14.6731 151.265 14.4338C151.265 14.2093 151.331 14.0247 151.464 13.88C151.596 13.7353 151.841 13.6277 152.197 13.5572C152.625 13.4719 152.902 13.4125 153.029 13.3791C153.156 13.3439 153.29 13.2984 153.432 13.2427C153.432 13.1036 153.403 13.0062 153.345 12.9505C153.287 12.8949 153.186 12.8671 153.04 12.8671C152.853 12.8671 152.713 12.8967 152.62 12.9561C152.547 13.0025 152.488 13.0897 152.444 13.2177H152.444ZM153.432 13.8132C153.275 13.8689 153.112 13.9181 152.942 13.9607C152.71 14.0219 152.564 14.0823 152.502 14.1416C152.439 14.2028 152.407 14.2724 152.407 14.3503C152.407 14.4394 152.438 14.5127 152.5 14.5702C152.563 14.6258 152.655 14.6537 152.777 14.6537C152.904 14.6537 153.021 14.6231 153.13 14.5618C153.24 14.5006 153.317 14.4264 153.362 14.3392C153.409 14.2501 153.432 14.1351 153.432 13.9941V13.8132Z" fill="#333333"/>
<path d="M59.1633 51.6885L60.37 51.6133C60.3961 51.8081 60.4493 51.9566 60.5296 52.0586C60.6602 52.2237 60.8469 52.3063 61.0895 52.3063C61.2706 52.3063 61.4096 52.2645 61.5067 52.1811C61.6056 52.0957 61.6551 51.9974 61.6551 51.8861C61.6551 51.7803 61.6084 51.6857 61.5151 51.6022C61.4218 51.5187 61.2052 51.4399 60.8655 51.3657C60.3093 51.2414 59.9127 51.0763 59.6756 50.8703C59.4367 50.6644 59.3173 50.4019 59.3173 50.0828C59.3173 49.8731 59.3779 49.6755 59.4993 49.49C59.6225 49.3026 59.8063 49.1561 60.0508 49.0503C60.2972 48.9427 60.6341 48.8889 61.0615 48.8889C61.586 48.8889 61.9854 48.9863 62.2598 49.1811C62.5361 49.3741 62.7003 49.682 62.7526 50.105L61.5571 50.1746C61.5254 49.9909 61.4582 49.8574 61.3555 49.7739C61.2547 49.6904 61.1147 49.6486 60.9355 49.6486C60.7881 49.6486 60.677 49.6802 60.6024 49.7432C60.5277 49.8045 60.4904 49.8796 60.4904 49.9687C60.4904 50.0336 60.5212 50.092 60.5828 50.144C60.6425 50.1978 60.7843 50.2479 61.0083 50.2943C61.5627 50.413 61.9593 50.5336 62.1982 50.656C62.439 50.7766 62.6135 50.9269 62.7218 51.1069C62.8319 51.2868 62.887 51.4881 62.887 51.7107C62.887 51.9723 62.8142 52.2135 62.6686 52.4343C62.523 52.6551 62.3195 52.823 62.0582 52.938C61.7969 53.0512 61.4675 53.1077 61.0699 53.1077C60.3718 53.1077 59.8884 52.9742 59.6196 52.707C59.3509 52.4399 59.1988 52.1004 59.1633 51.6885Z" fill="#333333"/>
<path d="M66.7506 51.8414H64.466C64.4866 52.0233 64.536 52.1587 64.6144 52.2478C64.7245 52.3758 64.8683 52.4398 65.0456 52.4398C65.1576 52.4398 65.264 52.4119 65.3648 52.3563C65.4263 52.321 65.4926 52.2589 65.5635 52.1698L66.6862 52.2728C66.5145 52.5696 66.3073 52.783 66.0647 52.9128C65.822 53.0409 65.4739 53.1049 65.0204 53.1049C64.6266 53.1049 64.3167 53.0501 64.0909 52.9407C63.865 52.8294 63.6774 52.6541 63.5281 52.4147C63.3807 52.1735 63.3069 51.8906 63.3069 51.5659C63.3069 51.104 63.4553 50.7302 63.7521 50.4444C64.0507 50.1587 64.4623 50.0159 64.9868 50.0159C65.4123 50.0159 65.7483 50.0799 65.9947 50.2079C66.2411 50.3359 66.4287 50.5214 66.5574 50.7645C66.6862 51.0075 66.7506 51.3238 66.7506 51.7134V51.8414ZM65.5915 51.2988C65.5691 51.0799 65.5094 50.9231 65.4123 50.8285C65.3172 50.7339 65.1912 50.6866 65.0344 50.6866C64.8533 50.6866 64.7087 50.758 64.6004 50.9008C64.5314 50.9899 64.4875 51.1225 64.4688 51.2988H65.5915Z" fill="#333333"/>
<path d="M69.4916 51.8832L70.5751 52.0056C70.5154 52.2301 70.4174 52.4249 70.2811 52.59C70.1449 52.7533 69.9703 52.8804 69.7576 52.9713C69.5466 53.0622 69.2779 53.1077 68.9512 53.1077C68.6358 53.1077 68.3726 53.0789 68.1617 53.0214C67.9527 52.962 67.7725 52.8674 67.6214 52.7375C67.4702 52.6058 67.3516 52.4518 67.2658 52.2756C67.1799 52.0993 67.137 51.8656 67.137 51.5743C67.137 51.27 67.1893 51.0168 67.2938 50.8146C67.3703 50.6661 67.4748 50.5335 67.6074 50.4166C67.7399 50.2979 67.8761 50.2098 68.0161 50.1523C68.2382 50.0613 68.5229 50.0159 68.87 50.0159C69.3553 50.0159 69.7249 50.1021 69.9787 50.2747C70.2344 50.4472 70.4136 50.6995 70.5163 51.0316L69.444 51.1736C69.4104 51.0474 69.3488 50.9528 69.2592 50.8897C69.1715 50.8248 69.053 50.7923 68.9036 50.7923C68.7151 50.7923 68.5621 50.86 68.4445 50.9955C68.3288 51.129 68.2709 51.3322 68.2709 51.6049C68.2709 51.8479 68.3288 52.0325 68.4445 52.1587C68.5602 52.2849 68.7077 52.3479 68.8868 52.3479C69.0362 52.3479 69.1612 52.3099 69.262 52.2338C69.3647 52.1578 69.4412 52.0409 69.4916 51.8832Z" fill="#333333"/>
<path d="M71.1098 50.0827H72.1766V50.5669C72.2792 50.3572 72.3847 50.2135 72.4929 50.1355C72.603 50.0558 72.7384 50.0159 72.8989 50.0159C73.0669 50.0159 73.2507 50.0678 73.4504 50.1717L73.0977 50.9787C72.9633 50.9231 72.8569 50.8953 72.7785 50.8953C72.6292 50.8953 72.5135 50.9565 72.4313 51.0789C72.3137 51.2515 72.2549 51.5743 72.2549 52.0474V53.0381H71.1098V50.0827Z" fill="#333333"/>
<path d="M77.0369 51.8414H74.7523C74.7728 52.0233 74.8223 52.1587 74.9007 52.2478C75.0108 52.3758 75.1545 52.4398 75.3319 52.4398C75.4439 52.4398 75.5502 52.4119 75.651 52.3563C75.7126 52.321 75.7789 52.2589 75.8498 52.1698L76.9725 52.2728C76.8008 52.5696 76.5936 52.783 76.351 52.9128C76.1083 53.0409 75.7602 53.1049 75.3067 53.1049C74.9128 53.1049 74.603 53.0501 74.3772 52.9407C74.1513 52.8294 73.9637 52.6541 73.8144 52.4147C73.6669 52.1735 73.5932 51.8906 73.5932 51.5659C73.5932 51.104 73.7416 50.7302 74.0384 50.4444C74.337 50.1587 74.7486 50.0159 75.2731 50.0159C75.6986 50.0159 76.0346 50.0799 76.281 50.2079C76.5274 50.3359 76.7149 50.5214 76.8437 50.7645C76.9725 51.0075 77.0369 51.3238 77.0369 51.7134V51.8414ZM75.8778 51.2988C75.8554 51.0799 75.7957 50.9231 75.6986 50.8285C75.6034 50.7339 75.4775 50.6866 75.3207 50.6866C75.1396 50.6866 74.995 50.758 74.8867 50.9008C74.8176 50.9899 74.7738 51.1225 74.7551 51.2988H75.8778Z" fill="#333333"/>
<path d="M78.9351 48.9585V50.0828H79.5623V50.9093H78.9351V51.9584C78.9351 52.0846 78.9473 52.1681 78.9716 52.2089C79.0089 52.272 79.0742 52.3035 79.1675 52.3035C79.2515 52.3035 79.3691 52.2794 79.5203 52.2312L79.6043 53.0131C79.3225 53.0744 79.0593 53.105 78.8148 53.105C78.5311 53.105 78.322 53.0688 78.1876 52.9965C78.0532 52.9241 77.9534 52.8146 77.888 52.6681C77.8246 52.5196 77.7929 52.2803 77.7929 51.9501V50.9093H77.3729V50.0828H77.7929V49.5401L78.9351 48.9585Z" fill="#333333"/>
<path d="M81.1442 51.04L80.055 50.9259C80.0961 50.7366 80.1549 50.5882 80.2314 50.4806C80.3098 50.3712 80.4218 50.2766 80.5674 50.1968C80.6719 50.1393 80.8157 50.0947 80.9986 50.0632C81.1815 50.0316 81.3793 50.0159 81.5921 50.0159C81.9337 50.0159 82.2081 50.0354 82.4152 50.0743C82.6224 50.1114 82.7951 50.1903 82.9332 50.3109C83.0303 50.3944 83.1068 50.5131 83.1628 50.6671C83.2188 50.8192 83.2468 50.9648 83.2468 51.104V52.4092C83.2468 52.5483 83.2552 52.6578 83.272 52.7375C83.2907 52.8155 83.3299 52.9156 83.3896 53.0381H82.3201C82.2771 52.962 82.2491 52.9045 82.2361 52.8655C82.223 52.8247 82.2099 52.7616 82.1969 52.6763C82.0476 52.8192 81.8992 52.9212 81.7517 52.9824C81.5501 53.064 81.3159 53.1049 81.049 53.1049C80.6943 53.1049 80.4246 53.0233 80.2398 52.86C80.0569 52.6967 79.9655 52.4954 79.9655 52.2561C79.9655 52.0316 80.0317 51.847 80.1643 51.7023C80.2968 51.5576 80.5413 51.45 80.8978 51.3795C81.3252 51.2941 81.6024 51.2348 81.7293 51.2014C81.8562 51.1661 81.9906 51.1207 82.1325 51.065C82.1325 50.9259 82.1036 50.8285 82.0457 50.7728C81.9878 50.7172 81.8861 50.6893 81.7405 50.6893C81.5539 50.6893 81.4139 50.719 81.3206 50.7784C81.2478 50.8248 81.189 50.912 81.1442 51.04H81.1442ZM82.1325 51.6355C81.9757 51.6912 81.8124 51.7403 81.6425 51.783C81.4111 51.8442 81.2645 51.9045 81.203 51.9639C81.1395 52.0251 81.1078 52.0947 81.1078 52.1726C81.1078 52.2617 81.1386 52.335 81.2001 52.3925C81.2636 52.4481 81.356 52.4759 81.4773 52.4759C81.6042 52.4759 81.7218 52.4453 81.8301 52.3841C81.9402 52.3229 82.0177 52.2487 82.0625 52.1615C82.1091 52.0724 82.1325 51.9574 82.1325 51.8164V51.6355Z" fill="#333333"/>
<path d="M83.9411 50.0827H85.0078V50.5669C85.1105 50.3572 85.2159 50.2135 85.3242 50.1355C85.4343 50.0558 85.5696 50.0159 85.7301 50.0159C85.8981 50.0159 86.082 50.0678 86.2817 50.1717L85.9289 50.9787C85.7945 50.9231 85.6881 50.8953 85.6098 50.8953C85.4604 50.8953 85.3447 50.9565 85.2626 51.0789C85.145 51.2515 85.0862 51.5743 85.0862 52.0474V53.0381H83.9411V50.0827Z" fill="#333333"/>
<path d="M86.5169 48.9585H87.6564V49.7294H86.5169V48.9585ZM86.5169 50.0828H87.6564V53.0382H86.5169V50.0828Z" fill="#333333"/>
<path d="M89.423 51.04L88.3339 50.9259C88.375 50.7366 88.4338 50.5882 88.5103 50.4806C88.5887 50.3712 88.7007 50.2766 88.8463 50.1968C88.9508 50.1393 89.0945 50.0947 89.2774 50.0632C89.4603 50.0316 89.6582 50.0159 89.871 50.0159C90.2125 50.0159 90.4869 50.0354 90.6941 50.0743C90.9013 50.1114 91.0739 50.1903 91.212 50.3109C91.3091 50.3944 91.3856 50.5131 91.4416 50.6671C91.4976 50.8192 91.5256 50.9648 91.5256 51.104V52.4092C91.5256 52.5483 91.534 52.6578 91.5508 52.7375C91.5695 52.8155 91.6087 52.9156 91.6684 53.0381H90.5989C90.556 52.962 90.528 52.9045 90.5149 52.8655C90.5019 52.8247 90.4888 52.7616 90.4757 52.6763C90.3264 52.8192 90.178 52.9212 90.0306 52.9824C89.829 53.064 89.5948 53.1049 89.3278 53.1049C88.9732 53.1049 88.7035 53.0233 88.5187 52.86C88.3358 52.6967 88.2443 52.4954 88.2443 52.2561C88.2443 52.0316 88.3106 51.847 88.4431 51.7023C88.5756 51.5576 88.8202 51.45 89.1767 51.3795C89.6041 51.2941 89.8813 51.2348 90.0082 51.2014C90.1351 51.1661 90.2695 51.1207 90.4113 51.065C90.4113 50.9259 90.3824 50.8285 90.3246 50.7728C90.2667 50.7172 90.165 50.6893 90.0194 50.6893C89.8327 50.6893 89.6927 50.719 89.5994 50.7784C89.5266 50.8248 89.4678 50.912 89.423 51.04H89.423ZM90.4113 51.6355C90.2545 51.6912 90.0912 51.7403 89.9214 51.783C89.6899 51.8442 89.5434 51.9045 89.4818 51.9639C89.4183 52.0251 89.3866 52.0947 89.3866 52.1726C89.3866 52.2617 89.4174 52.335 89.479 52.3925C89.5425 52.4481 89.6349 52.4759 89.7562 52.4759C89.8831 52.4759 90.0007 52.4453 90.1089 52.3841C90.2191 52.3229 90.2965 52.2487 90.3413 52.1615C90.388 52.0724 90.4113 51.9574 90.4113 51.8164V51.6355Z" fill="#333333"/>
<path d="M97.2511 48.9585V53.0382H96.1844V52.6013C96.0351 52.7868 95.8988 52.912 95.7757 52.977C95.6114 53.0623 95.4285 53.105 95.2269 53.105C94.8219 53.105 94.512 52.9519 94.2974 52.6458C94.0846 52.3397 93.9782 51.9677 93.9782 51.5299C93.9782 51.0401 94.0958 50.6653 94.331 50.4056C94.568 50.1459 94.8685 50.016 95.2325 50.016C95.4098 50.016 95.5703 50.0457 95.7141 50.105C95.8596 50.1644 95.9884 50.2535 96.1004 50.3722V48.9585H97.2511ZM96.1088 51.5521C96.1088 51.3202 96.0594 51.1477 95.9604 51.0345C95.8615 50.9195 95.7365 50.862 95.5853 50.862C95.4528 50.862 95.3417 50.9167 95.2521 51.0262C95.1625 51.1356 95.1177 51.3193 95.1177 51.5772C95.1177 51.8184 95.1634 51.9955 95.2549 52.1087C95.3482 52.22 95.463 52.2757 95.5993 52.2757C95.7449 52.2757 95.8662 52.2191 95.9632 52.1059C96.0603 51.9928 96.1088 51.8082 96.1088 51.5521Z" fill="#333333"/>
<path d="M101.246 51.8414H98.9618C98.9823 52.0233 99.0318 52.1587 99.1102 52.2478C99.2203 52.3758 99.364 52.4398 99.5413 52.4398C99.6533 52.4398 99.7597 52.4119 99.8605 52.3563C99.9221 52.321 99.9883 52.2589 100.059 52.1698L101.182 52.2728C101.01 52.5696 100.803 52.783 100.56 52.9128C100.318 53.0409 99.9697 53.1049 99.5161 53.1049C99.1223 53.1049 98.8125 53.0501 98.5866 52.9407C98.3608 52.8294 98.1732 52.6541 98.0239 52.4147C97.8764 52.1735 97.8027 51.8906 97.8027 51.5659C97.8027 51.104 97.9511 50.7302 98.2478 50.4444C98.5465 50.1587 98.958 50.0159 99.4825 50.0159C99.9081 50.0159 100.244 50.0799 100.49 50.2079C100.737 50.3359 100.924 50.5214 101.053 50.7645C101.182 51.0075 101.246 51.3238 101.246 51.7134V51.8414ZM100.087 51.2988C100.065 51.0799 100.005 50.9231 99.9081 50.8285C99.8129 50.7339 99.6869 50.6866 99.5301 50.6866C99.3491 50.6866 99.2044 50.758 99.0962 50.9008C99.0271 50.9899 98.9832 51.1225 98.9646 51.2988H100.087Z" fill="#333333"/>
<path d="M103.755 48.9585H107.154V49.8295H105.026V50.4779H107V51.31H105.026V52.1143H107.215V53.0382H103.755V48.9585Z" fill="#333333"/>
<path d="M107.621 52.2199L108.752 52.1142C108.799 52.2478 108.864 52.3433 108.948 52.4008C109.032 52.4583 109.144 52.4871 109.284 52.4871C109.438 52.4871 109.556 52.4546 109.64 52.3897C109.705 52.3414 109.738 52.2812 109.738 52.2088C109.738 52.1272 109.695 52.0641 109.609 52.0196C109.548 51.988 109.384 51.9491 109.119 51.9027C108.724 51.834 108.448 51.771 108.293 51.7134C108.14 51.6541 108.011 51.5548 107.904 51.4157C107.8 51.2765 107.747 51.1179 107.747 50.9398C107.747 50.745 107.804 50.5771 107.918 50.4361C108.032 50.2951 108.189 50.1903 108.389 50.1216C108.588 50.0511 108.856 50.0159 109.192 50.0159C109.547 50.0159 109.808 50.0428 109.976 50.0966C110.146 50.1504 110.287 50.2339 110.399 50.347C110.513 50.4602 110.607 50.6133 110.682 50.8062L109.601 50.912C109.573 50.8173 109.526 50.7478 109.461 50.7033C109.371 50.6439 109.263 50.6142 109.136 50.6142C109.007 50.6142 108.913 50.6374 108.853 50.6838C108.795 50.7283 108.766 50.783 108.766 50.848C108.766 50.9203 108.804 50.9751 108.878 51.0122C108.953 51.0493 109.116 51.0826 109.366 51.1123C109.745 51.155 110.026 51.2144 110.211 51.2904C110.396 51.3665 110.537 51.475 110.634 51.616C110.733 51.757 110.782 51.9119 110.782 52.0808C110.782 52.2515 110.73 52.4175 110.626 52.5789C110.523 52.7403 110.36 52.8693 110.136 52.9657C109.913 53.0603 109.61 53.1077 109.226 53.1077C108.683 53.1077 108.295 53.0307 108.064 52.8767C107.834 52.7227 107.687 52.5038 107.621 52.2199Z" fill="#333333"/>
<path d="M112.7 48.9585V50.0828H113.327V50.9093H112.7V51.9584C112.7 52.0846 112.712 52.1681 112.737 52.2089C112.774 52.272 112.839 52.3035 112.933 52.3035C113.017 52.3035 113.134 52.2794 113.285 52.2312L113.369 53.0131C113.087 53.0744 112.824 53.105 112.58 53.105C112.296 53.105 112.087 53.0688 111.953 52.9965C111.818 52.9241 111.718 52.8146 111.653 52.6681C111.59 52.5196 111.558 52.2803 111.558 51.9501V50.9093H111.138V50.0828H111.558V49.5401L112.7 48.9585Z" fill="#333333"/>
<path d="M114.909 51.04L113.82 50.9259C113.861 50.7366 113.92 50.5882 113.996 50.4806C114.075 50.3712 114.187 50.2766 114.332 50.1968C114.437 50.1393 114.581 50.0947 114.764 50.0632C114.946 50.0316 115.144 50.0159 115.357 50.0159C115.699 50.0159 115.973 50.0354 116.18 50.0743C116.387 50.1114 116.56 50.1903 116.698 50.3109C116.795 50.3944 116.872 50.5131 116.928 50.6671C116.984 50.8192 117.012 50.9648 117.012 51.104V52.4092C117.012 52.5483 117.02 52.6578 117.037 52.7375C117.056 52.8155 117.095 52.9156 117.155 53.0381H116.085C116.042 52.962 116.014 52.9045 116.001 52.8655C115.988 52.8247 115.975 52.7616 115.962 52.6763C115.813 52.8192 115.664 52.9212 115.517 52.9824C115.315 53.064 115.081 53.1049 114.814 53.1049C114.459 53.1049 114.19 53.0233 114.005 52.86C113.822 52.6967 113.73 52.4954 113.73 52.2561C113.73 52.0316 113.797 51.847 113.929 51.7023C114.062 51.5576 114.306 51.45 114.663 51.3795C115.09 51.2941 115.367 51.2348 115.494 51.2014C115.621 51.1661 115.756 51.1207 115.897 51.065C115.897 50.9259 115.868 50.8285 115.811 50.7728C115.753 50.7172 115.651 50.6893 115.505 50.6893C115.319 50.6893 115.179 50.719 115.086 50.7784C115.013 50.8248 114.954 50.912 114.909 51.04H114.909ZM115.897 51.6355C115.741 51.6912 115.577 51.7403 115.407 51.783C115.176 51.8442 115.03 51.9045 114.968 51.9639C114.904 52.0251 114.873 52.0947 114.873 52.1726C114.873 52.2617 114.904 52.335 114.965 52.3925C115.029 52.4481 115.121 52.4759 115.242 52.4759C115.369 52.4759 115.487 52.4453 115.595 52.3841C115.705 52.3229 115.783 52.2487 115.827 52.1615C115.874 52.0724 115.897 51.9574 115.897 51.8164V51.6355Z" fill="#333333"/>
<path d="M120.825 48.9585V53.0382H119.758V52.6013C119.609 52.7868 119.473 52.912 119.35 52.977C119.185 53.0623 119.002 53.105 118.801 53.105C118.396 53.105 118.086 52.9519 117.871 52.6458C117.659 52.3397 117.552 51.9677 117.552 51.5299C117.552 51.0401 117.67 50.6653 117.905 50.4056C118.142 50.1459 118.442 50.016 118.806 50.016C118.984 50.016 119.144 50.0457 119.288 50.105C119.434 50.1644 119.562 50.2535 119.674 50.3722V48.9585H120.825ZM119.683 51.5521C119.683 51.3202 119.633 51.1477 119.534 51.0345C119.435 50.9195 119.31 50.862 119.159 50.862C119.027 50.862 118.916 50.9167 118.826 51.0262C118.736 51.1356 118.692 51.3193 118.692 51.5772C118.692 51.8184 118.737 51.9955 118.829 52.1087C118.922 52.22 119.037 52.2757 119.173 52.2757C119.319 52.2757 119.44 52.2191 119.537 52.1059C119.634 51.9928 119.683 51.8082 119.683 51.5521Z" fill="#333333"/>
<path d="M121.379 51.5687C121.379 51.1179 121.532 50.7469 121.839 50.4556C122.145 50.1625 122.558 50.0159 123.079 50.0159C123.674 50.0159 124.124 50.1875 124.428 50.5307C124.673 50.8071 124.795 51.1476 124.795 51.552C124.795 52.0066 124.643 52.3795 124.339 52.6708C124.036 52.9602 123.617 53.1049 123.082 53.1049C122.604 53.1049 122.217 52.9843 121.923 52.7431C121.56 52.4444 121.379 52.0529 121.379 51.5687ZM122.522 51.5659C122.522 51.8293 122.575 52.0241 122.681 52.1503C122.79 52.2764 122.925 52.3395 123.087 52.3395C123.251 52.3395 123.386 52.2774 123.49 52.1531C123.597 52.0288 123.65 51.8293 123.65 51.5547C123.65 51.2987 123.597 51.1085 123.49 50.9842C123.384 50.8581 123.252 50.795 123.096 50.795C122.929 50.795 122.792 50.859 122.684 50.987C122.576 51.1132 122.522 51.3061 122.522 51.5659Z" fill="#333333"/>
<path d="M130.386 48.9585V53.0382H129.319V52.6013C129.17 52.7868 129.034 52.912 128.911 52.977C128.746 53.0623 128.564 53.105 128.362 53.105C127.957 53.105 127.647 52.9519 127.432 52.6458C127.22 52.3397 127.113 51.9677 127.113 51.5299C127.113 51.0401 127.231 50.6653 127.466 50.4056C127.703 50.1459 128.004 50.016 128.368 50.016C128.545 50.016 128.705 50.0457 128.849 50.105C128.995 50.1644 129.123 50.2535 129.235 50.3722V48.9585H130.386ZM129.244 51.5521C129.244 51.3202 129.194 51.1477 129.095 51.0345C128.997 50.9195 128.872 50.862 128.72 50.862C128.588 50.862 128.477 50.9167 128.387 51.0262C128.298 51.1356 128.253 51.3193 128.253 51.5772C128.253 51.8184 128.298 51.9955 128.39 52.1087C128.483 52.22 128.598 52.2757 128.734 52.2757C128.88 52.2757 129.001 52.2191 129.098 52.1059C129.195 51.9928 129.244 51.8082 129.244 51.5521Z" fill="#333333"/>
<path d="M132.119 51.04L131.03 50.9259C131.071 50.7366 131.13 50.5882 131.207 50.4806C131.285 50.3712 131.397 50.2766 131.542 50.1968C131.647 50.1393 131.791 50.0947 131.974 50.0632C132.157 50.0316 132.354 50.0159 132.567 50.0159C132.909 50.0159 133.183 50.0354 133.39 50.0743C133.597 50.1114 133.77 50.1903 133.908 50.3109C134.005 50.3944 134.082 50.5131 134.138 50.6671C134.194 50.8192 134.222 50.9648 134.222 51.104V52.4092C134.222 52.5483 134.23 52.6578 134.247 52.7375C134.266 52.8155 134.305 52.9156 134.365 53.0381H133.295C133.252 52.962 133.224 52.9045 133.211 52.8655C133.198 52.8247 133.185 52.7616 133.172 52.6763C133.023 52.8192 132.874 52.9212 132.727 52.9824C132.525 53.064 132.291 53.1049 132.024 53.1049C131.669 53.1049 131.4 53.0233 131.215 52.86C131.032 52.6967 130.941 52.4954 130.941 52.2561C130.941 52.0316 131.007 51.847 131.139 51.7023C131.272 51.5576 131.516 51.45 131.873 51.3795C132.3 51.2941 132.577 51.2348 132.704 51.2014C132.831 51.1661 132.966 51.1207 133.108 51.065C133.108 50.9259 133.079 50.8285 133.021 50.7728C132.963 50.7172 132.861 50.6893 132.716 50.6893C132.529 50.6893 132.389 50.719 132.296 50.7784C132.223 50.8248 132.164 50.912 132.119 51.04H132.119ZM133.108 51.6355C132.951 51.6912 132.787 51.7403 132.618 51.783C132.386 51.8442 132.24 51.9045 132.178 51.9639C132.115 52.0251 132.083 52.0947 132.083 52.1726C132.083 52.2617 132.114 52.335 132.175 52.3925C132.239 52.4481 132.331 52.4759 132.452 52.4759C132.579 52.4759 132.697 52.4453 132.805 52.3841C132.915 52.3229 132.993 52.2487 133.038 52.1615C133.084 52.0724 133.108 51.9574 133.108 51.8164V51.6355Z" fill="#333333"/>
<path d="M136.898 48.9585H140.034V49.8351H138.172V50.5475H139.763V51.3712H138.172V53.0382H136.898V48.9585Z" fill="#333333"/>
<path d="M141.532 51.04L140.443 50.9259C140.484 50.7366 140.543 50.5882 140.619 50.4806C140.698 50.3712 140.81 50.2766 140.955 50.1968C141.06 50.1393 141.203 50.0947 141.386 50.0632C141.569 50.0316 141.767 50.0159 141.98 50.0159C142.322 50.0159 142.596 50.0354 142.803 50.0743C143.01 50.1114 143.183 50.1903 143.321 50.3109C143.418 50.3944 143.495 50.5131 143.551 50.6671C143.607 50.8192 143.635 50.9648 143.635 51.104V52.4092C143.635 52.5483 143.643 52.6578 143.66 52.7375C143.678 52.8155 143.718 52.9156 143.777 53.0381H142.708C142.665 52.962 142.637 52.9045 142.624 52.8655C142.611 52.8247 142.598 52.7616 142.585 52.6763C142.435 52.8192 142.287 52.9212 142.14 52.9824C141.938 53.064 141.704 53.1049 141.437 53.1049C141.082 53.1049 140.812 53.0233 140.628 52.86C140.445 52.6967 140.353 52.4954 140.353 52.2561C140.353 52.0316 140.42 51.847 140.552 51.7023C140.685 51.5576 140.929 51.45 141.286 51.3795C141.713 51.2941 141.99 51.2348 142.117 51.2014C142.244 51.1661 142.378 51.1207 142.52 51.065C142.52 50.9259 142.491 50.8285 142.433 50.7728C142.376 50.7172 142.274 50.6893 142.128 50.6893C141.942 50.6893 141.802 50.719 141.708 50.7784C141.636 50.8248 141.577 50.912 141.532 51.04H141.532ZM142.52 51.6355C142.364 51.6912 142.2 51.7403 142.03 51.783C141.799 51.8442 141.652 51.9045 141.591 51.9639C141.527 52.0251 141.496 52.0947 141.496 52.1726C141.496 52.2617 141.526 52.335 141.588 52.3925C141.651 52.4481 141.744 52.4759 141.865 52.4759C141.992 52.4759 142.11 52.4453 142.218 52.3841C142.328 52.3229 142.406 52.2487 142.45 52.1615C142.497 52.0724 142.52 51.9574 142.52 51.8164V51.6355Z" fill="#333333"/>
<path d="M144.189 50.0828H146.947V50.7451L145.446 52.2645H147.039V53.0382H144.077V52.3035L145.499 50.8564H144.189V50.0828Z" fill="#333333"/>
<path d="M150.752 51.8414H148.467C148.487 52.0233 148.537 52.1587 148.615 52.2478C148.725 52.3758 148.869 52.4398 149.047 52.4398C149.159 52.4398 149.265 52.4119 149.366 52.3563C149.427 52.321 149.494 52.2589 149.564 52.1698L150.687 52.2728C150.515 52.5696 150.308 52.783 150.066 52.9128C149.823 53.0409 149.475 53.1049 149.021 53.1049C148.627 53.1049 148.318 53.0501 148.092 52.9407C147.866 52.8294 147.678 52.6541 147.529 52.4147C147.382 52.1735 147.308 51.8906 147.308 51.5659C147.308 51.104 147.456 50.7302 147.753 50.4444C148.052 50.1587 148.463 50.0159 148.988 50.0159C149.413 50.0159 149.749 50.0799 149.996 50.2079C150.242 50.3359 150.43 50.5214 150.558 50.7645C150.687 51.0075 150.752 51.3238 150.752 51.7134V51.8414ZM149.592 51.2988C149.57 51.0799 149.51 50.9231 149.413 50.8285C149.318 50.7339 149.192 50.6866 149.035 50.6866C148.854 50.6866 148.71 50.758 148.601 50.9008C148.532 50.9899 148.488 51.1225 148.47 51.2988H149.592Z" fill="#333333"/>
<path d="M151.275 50.0827H152.336V50.5641C152.495 50.3675 152.655 50.2274 152.818 50.1439C152.98 50.0586 153.178 50.0159 153.411 50.0159C153.727 50.0159 153.973 50.1096 154.15 50.2969C154.33 50.4825 154.419 50.77 154.419 51.1596V53.0381H153.274V51.4129C153.274 51.2274 153.24 51.0966 153.171 51.0205C153.102 50.9426 153.004 50.9036 152.879 50.9036C152.741 50.9036 152.629 50.9556 152.543 51.0595C152.458 51.1634 152.415 51.3498 152.415 51.6188V53.0381H151.275V50.0827Z" fill="#333333"/>
<path d="M158.23 48.9585V53.0382H157.163V52.6013C157.014 52.7868 156.877 52.912 156.754 52.977C156.59 53.0623 156.407 53.105 156.205 53.105C155.8 53.105 155.491 52.9519 155.276 52.6458C155.063 52.3397 154.957 51.9677 154.957 51.5299C154.957 51.0401 155.074 50.6653 155.31 50.4056C155.547 50.1459 155.847 50.016 156.211 50.016C156.388 50.016 156.549 50.0457 156.693 50.105C156.838 50.1644 156.967 50.2535 157.079 50.3722V48.9585H158.23ZM157.087 51.5521C157.087 51.3202 157.038 51.1477 156.939 51.0345C156.84 50.9195 156.715 50.862 156.564 50.862C156.431 50.862 156.32 50.9167 156.231 51.0262C156.141 51.1356 156.096 51.3193 156.096 51.5772C156.096 51.8184 156.142 51.9955 156.233 52.1087C156.327 52.22 156.442 52.2757 156.578 52.2757C156.723 52.2757 156.845 52.2191 156.942 52.1059C157.039 51.9928 157.087 51.8082 157.087 51.5521Z" fill="#333333"/>
<path d="M159.963 51.04L158.874 50.9259C158.915 50.7366 158.973 50.5882 159.05 50.4806C159.128 50.3712 159.24 50.2766 159.386 50.1968C159.491 50.1393 159.634 50.0947 159.817 50.0632C160 50.0316 160.198 50.0159 160.411 50.0159C160.752 50.0159 161.027 50.0354 161.234 50.0743C161.441 50.1114 161.614 50.1903 161.752 50.3109C161.849 50.3944 161.925 50.5131 161.981 50.6671C162.037 50.8192 162.065 50.9648 162.065 51.104V52.4092C162.065 52.5483 162.074 52.6578 162.091 52.7375C162.109 52.8155 162.148 52.9156 162.208 53.0381H161.139C161.096 52.962 161.068 52.9045 161.055 52.8655C161.042 52.8247 161.029 52.7616 161.015 52.6763C160.866 52.8192 160.718 52.9212 160.57 52.9824C160.369 53.064 160.134 53.1049 159.868 53.1049C159.513 53.1049 159.243 53.0233 159.058 52.86C158.876 52.6967 158.784 52.4954 158.784 52.2561C158.784 52.0316 158.85 51.847 158.983 51.7023C159.115 51.5576 159.36 51.45 159.716 51.3795C160.144 51.2941 160.421 51.2348 160.548 51.2014C160.675 51.1661 160.809 51.1207 160.951 51.065C160.951 50.9259 160.922 50.8285 160.864 50.7728C160.806 50.7172 160.705 50.6893 160.559 50.6893C160.372 50.6893 160.232 50.719 160.139 50.7784C160.066 50.8248 160.008 50.912 159.963 51.04H159.963ZM160.951 51.6355C160.794 51.6912 160.631 51.7403 160.461 51.783C160.23 51.8442 160.083 51.9045 160.022 51.9639C159.958 52.0251 159.926 52.0947 159.926 52.1726C159.926 52.2617 159.957 52.335 160.019 52.3925C160.082 52.4481 160.175 52.4759 160.296 52.4759C160.423 52.4759 160.54 52.4453 160.649 52.3841C160.759 52.3229 160.836 52.2487 160.881 52.1615C160.928 52.0724 160.951 51.9574 160.951 51.8164V51.6355Z" fill="#333333"/>
</svg>
