<svg width="455" height="306" viewBox="0 0 455 306" fill="none" xmlns="http://www.w3.org/2000/svg">
<path fill-rule="evenodd" clip-rule="evenodd" d="M17.4146 64.6816C7.7968 64.6816 0 72.4784 0 82.0963H99.5122C99.5122 72.4784 91.7154 64.6816 82.0976 64.6816H17.4146ZM373.171 82.0967H0V305.999H373.171V82.0967Z" fill="#50668F"/>
<rect x="29.8552" y="17.415" width="323.415" height="179.122" fill="#EFEFEF"/>
<path d="M68.6153 102.001H451.58L374.265 306.001H0L68.6153 102.001Z" fill="#D9DCF7"/>
<rect x="96.3846" y="28.5586" width="87.0732" height="12.439" fill="#FFA64D"/>
<rect x="46.4075" y="28.5586" width="35.698" height="35.698" rx="17.849" fill="#FFA64D"/>
<rect x="96.3846" y="49.9771" width="47.2683" height="12.439" fill="#FFA64D"/>
<path fill-rule="evenodd" clip-rule="evenodd" d="M410.842 98.3556C417.024 89.657 420.659 79.0217 420.659 67.5374C420.659 38.1237 396.814 14.2793 367.401 14.2793C337.987 14.2793 314.143 38.1237 314.143 67.5374C314.143 96.951 337.987 120.795 367.401 120.795C378.886 120.795 389.522 117.16 398.221 110.977L442.049 154.805L454.67 142.184L410.842 98.3556Z" fill="#666666"/>
<circle cx="367.69" cy="67.8264" r="39.2678" fill="white"/>
<path fill-rule="evenodd" clip-rule="evenodd" d="M368.169 71.9279L381.624 85.3827L386.049 80.957L372.595 67.5023L385.246 54.8511L380.82 50.4255L368.169 63.0767L355.07 49.9775L350.644 54.4032L363.743 67.5023L349.841 81.405L354.266 85.8307L368.169 71.9279Z" fill="#FF0000"/>
</svg>
