<svg width="421" height="290" viewBox="0 0 421 290" fill="none" xmlns="http://www.w3.org/2000/svg">
<path fill-rule="evenodd" clip-rule="evenodd" d="M47.878 37C34.1383 37 23 48.1383 23 61.878V66H123V61.878C123 48.1383 111.862 37 98.1219 37H47.878ZM396.171 66.0967H23V289.999H396.171V66.0967Z" fill="#50668F"/>
<path d="M0.5 86.001H421L397.265 290.001H23L0.5 86.001Z" fill="#D9DCF7"/>
<path d="M203.821 262.652C189.216 261.148 175.198 255.411 163.974 246.345C162.362 245.043 160.724 243.634 160.333 243.214C159.943 242.793 159.48 242.449 159.305 242.449C159.13 242.449 156.088 245.359 152.544 248.915C149 252.471 145.705 255.59 145.222 255.847C142.841 257.11 140.175 256.82 138.256 255.09C135.866 252.935 136.006 254.554 136 228.825C135.998 214.879 136.107 205.571 136.281 204.945C136.679 203.512 138.221 201.747 139.634 201.105C140.762 200.592 142.087 200.563 164.12 200.563C186.154 200.563 187.478 200.592 188.606 201.105C190.65 202.033 192.245 204.487 192.245 206.703C192.245 209.012 191.849 209.531 184.283 217.141L176.965 224.502L179.056 226.224C191.092 236.133 206.224 239.945 221.313 236.87C233.297 234.428 244.298 227.252 251.538 217.154C253.531 214.375 254.767 212 257.284 206.117C258.299 203.744 259.421 201.578 259.826 201.21C260.548 200.552 260.571 200.55 271.05 200.55H281.551L282.461 201.4C283.738 202.593 283.742 203.294 282.494 207.729C278.399 222.281 270.436 235.163 259.785 244.465C248.117 254.655 235.614 260.379 220.962 262.238C216.694 262.78 207.268 263.008 203.822 262.652H203.821ZM138.954 174.602C137.603 173.465 137.549 172.428 138.638 168.573C143.442 151.58 152.66 137.93 166.38 127.496C183.632 114.374 207.263 109.778 229.166 115.284C240.375 118.101 250.667 123.434 259.843 131.178C261.326 132.43 262.645 133.453 262.776 133.453C262.906 133.453 265.912 130.544 269.456 126.988C273 123.432 276.295 120.312 276.778 120.056C279.159 118.793 281.825 119.082 283.744 120.813C286.134 122.967 285.994 121.348 286 147.078C286.002 161.023 285.893 170.332 285.719 170.957C285.321 172.391 283.779 174.156 282.366 174.798C281.238 175.31 279.913 175.339 257.88 175.339C235.846 175.339 234.522 175.31 233.394 174.798C231.35 173.87 229.755 171.415 229.755 169.199C229.755 166.89 230.149 166.374 237.755 158.724L245.11 151.325L244.097 150.447C238.98 146.014 233.409 142.735 227.503 140.679C219.318 137.83 209.537 137.229 200.696 139.03C188.703 141.474 177.67 148.679 170.423 158.798C168.469 161.526 167.225 163.92 164.716 169.785C163.701 172.158 162.579 174.325 162.174 174.693C161.451 175.352 161.441 175.352 150.648 175.352H139.846L138.954 174.602Z" fill="#50668F"/>
<rect x="51" width="320" height="86" fill="#F0F0F0"/>
<circle cx="85" cy="30" r="13" fill="#FFA64D"/>
<rect x="116" y="17" width="174" height="7" fill="#FFA64D"/>
<rect x="116" y="36" width="71" height="7" fill="#FFA64D"/>
</svg>
